<?xml version="1.0" standalone="no"?>
<!DOCTYPE svg PUBLIC "-//W3C//DTD SVG 20010904//EN"
 "http://www.w3.org/TR/2001/REC-SVG-20010904/DTD/svg10.dtd">
<svg version="1.0" xmlns="http://www.w3.org/2000/svg"
 width="450.000000pt" height="350.000000pt" viewBox="0 0 450.000000 350.000000"
 preserveAspectRatio="xMidYMid meet">
<metadata>
Created by potrace 1.15, written by Peter Selinger 2001-2017
</metadata>
<g transform="translate(0.000000,350.000000) scale(0.100000,-0.100000)"
fill="#000000" stroke="none">
<path d="M2021 2686 c-13 -15 -5 -46 13 -47 8 0 247 0 424 1 9 0 12 10 10 28
l-3 27 -216 3 c-175 2 -218 0 -228 -12z"/>
<path d="M2622 2688 c-14 -14 -16 -35 -3 -43 8 -4 290 -8 429 -5 19 0 23 5 20
28 l-3 27 -215 3 c-159 2 -219 -1 -228 -10z"/>
<path d="M1705 1909 c-116 -17 -203 -78 -225 -159 -6 -23 -9 -148 -8 -322 l3
-283 47 90 c69 131 98 181 148 263 41 66 50 74 100 93 104 39 405 89 538 89
l42 0 0 110 0 109 -37 10 c-46 13 -521 12 -608 0z"/>
<path d="M2778 1913 c-43 -7 -49 -23 -46 -129 l3 -99 140 -12 c221 -20 446
-68 492 -105 29 -23 130 -199 239 -418 l23 -45 0 324 1 324 -24 42 c-34 57
-119 102 -218 115 -70 9 -554 11 -610 3z"/>
<path d="M894 1655 c-34 -7 -83 -27 -109 -43 -38 -24 -52 -28 -66 -19 -13 8
-40 3 -116 -21 -145 -47 -222 -98 -297 -197 -137 -178 -148 -486 -31 -851 13
-44 25 -82 25 -86 0 -4 -28 -8 -62 -10 -38 -2 -63 -8 -66 -15 -3 -10 64 -13
312 -13 274 0 316 2 316 15 0 12 -15 15 -74 15 -70 0 -75 1 -78 22 -2 18 -10
23 -33 23 -23 0 -31 -5 -33 -23 -3 -21 -8 -22 -97 -22 -81 0 -96 3 -104 18
-14 26 -78 256 -92 332 -7 36 -13 126 -13 200 0 112 3 147 22 206 41 132 128
233 245 283 44 19 117 37 117 30 0 -2 -11 -31 -25 -64 -46 -113 -29 -252 46
-355 l31 -42 259 258 259 259 -33 31 c-67 62 -198 92 -303 69z"/>
<path d="M3210 1070 l0 -110 60 0 c33 0 60 3 60 8 0 13 -105 212 -112 212 -5
0 -8 -49 -8 -110z"/>
<path d="M2445 752 c-22 -15 -68 -45 -103 -66 -53 -32 -61 -40 -51 -53 10 -12
10 -16 -2 -24 -8 -5 -17 -9 -21 -9 -5 0 -8 -7 -8 -16 0 -20 64 -46 102 -42 37
4 61 -25 48 -59 -9 -23 -32 -27 -194 -37 -75 -5 -119 -16 -63 -16 15 0 27 -4
27 -10 0 -15 146 -13 162 3 16 14 89 49 94 44 5 -5 -121 -77 -134 -77 -7 0
-12 -5 -12 -11 0 -5 -5 -7 -11 -4 -6 4 -20 -2 -32 -13 -30 -26 -67 -45 -67
-33 0 5 -9 13 -21 16 -17 6 -20 13 -15 36 5 26 3 29 -20 29 -14 0 -23 -4 -19
-9 3 -5 -5 -17 -17 -25 -22 -15 -22 -16 -2 -16 11 0 29 -6 39 -14 19 -13 18
-15 -15 -23 -42 -11 -50 -35 -18 -52 13 -6 15 -9 5 -6 -10 2 -15 1 -12 -5 3
-5 -8 -16 -26 -25 -17 -9 -28 -19 -25 -22 3 -3 21 4 41 16 32 19 38 19 51 6 9
-8 24 -15 35 -15 10 0 19 -4 19 -10 0 -5 17 -9 38 -9 20 1 29 3 19 6 -12 3
-16 10 -13 20 3 8 9 26 12 39 3 13 13 24 21 24 13 0 15 -9 11 -45 l-6 -45 53
0 c57 0 65 7 65 61 0 46 17 69 50 69 27 0 50 22 50 48 0 7 -58 30 -93 36 -7 1
46 33 119 72 32 17 32 16 148 -44 64 -33 116 -58 116 -54 0 4 4 1 9 -7 5 -7
11 -9 14 -5 3 5 -35 29 -84 53 -48 25 -86 48 -83 53 3 4 -3 5 -13 1 -14 -5
-16 -3 -6 7 9 10 20 9 55 -5 49 -19 130 -26 150 -13 8 6 -6 8 -40 6 -28 -2
-52 0 -52 5 0 4 9 7 20 7 13 0 24 10 31 26 11 32 11 32 -28 40 -26 5 -32 2
-38 -15 -7 -22 -20 -27 -29 -12 -4 5 0 12 6 15 7 3 -9 4 -37 3 -46 -2 -50 -4
-55 -30 l-5 -29 -25 19 c-14 11 -39 25 -57 32 -17 7 -34 19 -37 28 -3 8 -10
12 -16 8 -5 -3 -27 4 -50 15 -22 11 -40 17 -40 13 0 -5 -4 -3 -8 3 -4 5 -18
17 -30 26 l-24 16 49 28 c45 27 143 91 152 100 15 15 -21 -1 -54 -24z"/>
<path d="M2610 758 c25 -11 54 -28 65 -38 11 -9 41 -25 67 -35 26 -9 49 -23
52 -30 4 -10 -1 -10 -22 1 -14 7 -37 11 -49 9 -76 -16 -74 -15 -64 -33 7 -14
19 -17 44 -14 25 3 36 -1 40 -12 6 -14 3 -15 -14 -5 -32 17 -33 4 -2 -19 25
-17 32 -18 63 -6 19 7 30 13 23 13 -6 1 -9 10 -6 21 3 11 9 17 14 14 5 -3 9
-1 9 5 0 6 7 8 15 5 8 -4 12 -11 8 -17 -3 -6 -1 -7 5 -3 6 4 45 -11 87 -33 54
-28 75 -35 75 -24 0 8 -4 11 -10 8 -5 -3 -10 -2 -10 2 0 5 -40 29 -90 53 -90
44 -103 56 -75 66 8 4 12 10 9 15 -3 5 -10 7 -15 4 -28 -18 -60 -11 -141 30
-48 25 -95 45 -105 44 -10 0 2 -10 27 -21z"/>
<path d="M1561 581 c-47 -94 -82 -174 -78 -177 5 -6 170 -45 173 -41 1 1 -1
89 -5 196 l-6 193 -84 -171z"/>
<path d="M3435 562 c-4 -106 -5 -195 -3 -197 8 -8 172 31 175 42 2 6 -34 87
-80 179 l-85 169 -7 -193z"/>
<path d="M99 328 c-1 -20 -1 -81 0 -95 1 -10 91 -13 416 -13 362 0 415 2 415
15 0 13 -51 15 -400 15 l-400 0 0 30 0 30 400 0 c349 0 400 2 400 15 0 13 -53
15 -415 15 -325 0 -415 -3 -416 -12z"/>
</g>
</svg>
