<?xml version="1.0" standalone="no"?>
<!DOCTYPE svg PUBLIC "-//W3C//DTD SVG 20010904//EN"
 "http://www.w3.org/TR/2001/REC-SVG-20010904/DTD/svg10.dtd">
<svg version="1.0" xmlns="http://www.w3.org/2000/svg"
 width="450.000000pt" height="350.000000pt" viewBox="0 0 450.000000 350.000000"
 preserveAspectRatio="xMidYMid meet">
<metadata>
Created by potrace 1.15, written by Peter Selinger 2001-2017
</metadata>
<g transform="translate(0.000000,350.000000) scale(0.100000,-0.100000)"
fill="#000000" stroke="none">
<path d="M2021 2686 c-6 -7 -9 -21 -5 -30 5 -14 33 -16 231 -16 l224 0 -3 28
-3 27 -216 3 c-175 2 -218 0 -228 -12z"/>
<path d="M2621 2686 c-6 -7 -9 -21 -5 -30 5 -14 33 -16 231 -16 l224 0 -3 28
-3 27 -216 3 c-175 2 -218 0 -228 -12z"/>
<path d="M1705 1909 c-116 -17 -203 -78 -225 -159 -6 -23 -9 -148 -8 -322 l3
-283 28 55 c55 106 191 340 208 359 40 43 251 90 502 113 l137 12 0 108 0 107
-37 10 c-46 13 -521 12 -608 0z"/>
<path d="M2778 1913 c-43 -7 -49 -23 -46 -129 l3 -99 131 -12 c214 -19 394
-54 471 -90 47 -23 88 -84 198 -298 49 -93 90 -172 92 -174 1 -2 3 142 3 320
l0 325 -27 43 c-36 54 -123 99 -219 112 -67 8 -553 10 -606 2z"/>
<path d="M894 1655 c-34 -7 -83 -27 -109 -43 -38 -24 -52 -28 -66 -19 -13 8
-40 3 -116 -21 -143 -46 -216 -94 -292 -190 -141 -180 -154 -489 -36 -858 13
-44 25 -82 25 -86 0 -4 -28 -8 -62 -10 -38 -2 -63 -8 -66 -15 -3 -10 64 -13
312 -13 274 0 316 2 316 15 0 12 -15 15 -74 15 -70 0 -75 1 -78 22 -2 18 -10
23 -33 23 -23 0 -31 -5 -33 -23 -3 -21 -8 -22 -97 -22 -81 0 -96 3 -104 18
-14 26 -78 256 -92 332 -7 36 -13 126 -13 200 0 112 3 147 22 206 41 132 128
233 245 283 44 19 117 37 117 30 0 -2 -11 -31 -25 -64 -47 -113 -29 -252 46
-355 l31 -43 259 259 260 259 -34 31 c-67 62 -198 92 -303 69z"/>
<path d="M3210 1071 l0 -111 60 0 c33 0 60 4 60 9 0 13 -100 200 -111 206 -5
4 -9 -39 -9 -104z"/>
<path d="M2445 752 c-22 -15 -68 -45 -103 -66 -59 -36 -62 -39 -47 -56 15 -16
14 -18 -10 -24 -63 -16 14 -74 81 -61 30 5 34 3 40 -19 15 -61 -7 -72 -149
-77 -38 -1 -83 -5 -100 -9 -31 -8 -31 -8 -4 -9 15 -1 27 -5 27 -11 0 -6 31
-10 74 -10 58 0 79 4 92 18 10 9 19 16 21 14 2 -1 17 5 34 14 51 26 42 10 -11
-21 -28 -16 -50 -33 -50 -38 0 -4 -4 -5 -10 -2 -5 3 -10 2 -10 -4 0 -6 -7 -8
-15 -5 -8 4 -15 1 -15 -5 0 -6 -6 -8 -13 -5 -7 2 -22 -4 -33 -14 -28 -27 -64
-45 -64 -33 0 5 -9 13 -21 16 -17 6 -20 13 -15 36 5 26 3 29 -20 29 -14 0 -23
-4 -19 -9 3 -5 -5 -17 -17 -25 -22 -15 -22 -16 -2 -16 11 0 29 -6 39 -14 19
-13 18 -15 -15 -23 -42 -11 -50 -35 -18 -52 13 -6 15 -9 6 -7 -10 3 -17 2 -17
-2 3 -19 -2 -25 -11 -12 -8 13 -10 12 -10 -2 0 -10 -7 -18 -15 -18 -8 0 -15
-4 -15 -10 0 -15 11 -12 49 11 30 18 35 19 50 5 10 -9 28 -16 40 -16 12 0 19
-4 16 -10 -4 -6 9 -10 32 -9 21 1 30 3 20 6 -12 3 -16 10 -13 20 3 8 9 26 12
39 3 13 13 24 21 24 13 0 15 -9 10 -46 l-5 -45 61 3 62 3 -3 42 c-4 56 11 83
48 83 27 0 50 22 50 48 0 7 -58 30 -93 36 -7 1 46 33 119 72 l32 17 126 -66
c69 -36 127 -63 130 -59 2 4 -36 27 -85 51 -48 25 -86 48 -83 53 3 4 -3 5 -13
1 -14 -5 -16 -3 -6 7 10 10 18 10 46 -3 40 -20 144 -31 152 -17 4 6 -14 11
-42 11 -26 1 -38 4 -25 6 13 3 27 16 33 30 11 31 11 31 -28 39 -26 5 -32 2
-38 -15 -7 -22 -20 -27 -29 -12 -4 5 0 12 6 15 7 3 -9 4 -37 3 -47 -2 -50 -4
-55 -31 l-5 -29 -34 29 c-19 16 -36 28 -38 27 -9 -8 -24 -1 -43 19 -11 12 -23
19 -26 15 -4 -3 -24 3 -45 14 -22 11 -39 16 -39 12 0 -5 -4 -3 -8 3 -4 5 -17
17 -30 26 -22 15 -22 16 78 78 55 35 100 65 100 67 0 8 -18 0 -55 -25z"/>
<path d="M2594 765 c11 -8 25 -15 32 -15 7 0 25 -11 41 -24 15 -13 45 -29 66
-37 21 -7 45 -22 54 -32 16 -17 16 -17 -12 -3 -16 9 -38 14 -50 11 -75 -15
-76 -15 -66 -33 7 -14 18 -17 47 -14 25 3 35 1 30 -6 -4 -6 -13 -9 -21 -5 -24
9 -17 -4 14 -26 27 -19 32 -20 62 -6 19 8 29 14 22 15 -14 0 -6 31 10 42 13 8
38 -2 31 -13 -3 -5 1 -6 9 -4 7 3 30 -6 50 -19 20 -14 37 -23 37 -20 0 3 16
-3 35 -15 29 -17 35 -18 35 -5 0 8 -4 12 -10 9 -5 -3 -10 -2 -10 2 0 5 -40 29
-90 53 -90 44 -103 56 -75 66 8 4 12 10 9 15 -3 5 -10 7 -15 4 -28 -18 -60
-11 -141 30 -86 44 -132 59 -94 30z"/>
<path d="M1560 581 c-46 -94 -81 -173 -78 -177 6 -6 171 -45 174 -41 1 1 -1
89 -5 195 l-6 193 -85 -170z"/>
<path d="M3435 562 c-4 -106 -5 -195 -3 -197 8 -9 172 31 175 42 2 6 -34 87
-80 179 l-84 168 -8 -192z"/>
<path d="M99 325 c0 -8 -1 -31 -1 -50 0 -19 1 -39 1 -45 1 -6 147 -10 416 -10
362 0 415 2 415 15 0 13 -51 15 -400 15 l-400 0 0 30 0 30 400 0 c349 0 400 2
400 15 0 13 -53 15 -415 15 -362 0 -415 -2 -416 -15z"/>
</g>
</svg>
