<?xml version="1.0" standalone="no"?>
<!DOCTYPE svg PUBLIC "-//W3C//DTD SVG 20010904//EN"
 "http://www.w3.org/TR/2001/REC-SVG-20010904/DTD/svg10.dtd">
<svg version="1.0" xmlns="http://www.w3.org/2000/svg"
 width="150.000000pt" height="200.000000pt" viewBox="0 0 150.000000 200.000000"
 preserveAspectRatio="xMidYMid meet">

<g transform="translate(0.000000,200.000000) scale(0.100000,-0.100000)"
fill="#000000" stroke="none">
<path d="M689 1980 c-76 -28 -131 -71 -158 -122 -23 -43 -29 -48 -71 -54 -65
-9 -106 -28 -126 -59 -16 -25 -16 -27 3 -53 11 -15 43 -36 71 -48 29 -11 54
-23 57 -26 10 -9 -28 -151 -49 -184 -25 -40 -36 -41 -112 -10 -78 31 -133 40
-181 27 -65 -18 -113 -87 -113 -163 0 -58 49 -118 96 -118 15 0 24 -8 28 -25
6 -25 39 -35 51 -16 3 6 23 2 48 -9 23 -11 53 -20 65 -20 13 0 31 -9 40 -21
19 -23 48 -18 57 9 3 11 29 23 77 34 67 17 72 17 85 0 18 -23 9 -70 -28 -147
-33 -71 -46 -84 -118 -124 l-53 -28 -38 20 c-35 20 -42 20 -121 8 -125 -18
-128 -19 -143 -49 -8 -15 -23 -36 -35 -46 -24 -21 -27 -51 -8 -82 41 -71 71
-105 114 -129 71 -40 103 -31 180 48 49 50 71 65 107 74 25 6 46 7 46 4 0 -3
-7 -28 -15 -56 -9 -27 -15 -62 -13 -76 2 -22 -12 -40 -74 -98 l-76 -71 -12 35
c-15 45 -47 66 -108 71 -43 3 -52 -1 -85 -31 -44 -40 -46 -65 -18 -178 32
-123 85 -187 156 -187 31 0 73 21 98 48 10 11 83 52 161 91 l143 71 43 -15
c23 -8 57 -15 75 -15 21 0 39 -8 56 -26 13 -15 53 -49 88 -76 36 -27 74 -65
86 -86 47 -84 132 -93 203 -20 54 54 115 170 115 218 0 38 -32 86 -65 99 -16
6 -14 11 13 51 16 25 43 70 59 101 32 62 88 117 152 150 24 12 46 27 50 33 13
19 9 54 -8 71 -24 23 -130 11 -218 -26 -37 -16 -73 -29 -80 -29 -6 0 -31 31
-56 70 -25 38 -60 81 -78 95 -31 25 -34 25 -62 11 -28 -13 -31 -13 -40 5 -13
23 -5 59 25 119 25 49 49 73 143 144 66 50 92 88 92 133 0 15 -23 77 -51 138
-34 74 -48 117 -44 133 3 13 1 51 -5 85 -11 60 -32 97 -54 97 -7 0 -19 9 -29
20 -9 11 -25 20 -35 20 -34 0 -72 24 -72 46 0 12 -7 27 -15 34 -8 7 -15 18
-15 24 0 6 -20 32 -45 59 -51 54 -76 58 -156 27z m71 -10 c0 -5 -7 -7 -15 -4
-8 4 -15 8 -15 10 0 2 7 4 15 4 8 0 15 -4 15 -10z m-35 -10 c3 -5 21 -11 38
-11 l32 -2 -29 -4 c-16 -3 -33 0 -38 5 -12 12 -65 -3 -98 -28 -18 -13 -23 -28
-24 -63 -1 -25 2 -49 7 -53 4 -4 24 0 44 10 21 10 63 20 93 22 l55 3 -57 -9
c-32 -5 -71 -16 -87 -25 -17 -8 -36 -15 -44 -15 -17 0 -28 48 -21 93 4 30 4
31 -6 7 -7 -14 -9 -42 -6 -62 l6 -38 -32 7 c-18 3 -34 7 -36 9 -8 6 20 44 29
39 5 -4 9 4 9 17 1 28 25 62 39 54 5 -4 13 -1 17 5 6 10 81 48 96 49 4 0 10
-4 13 -10z m50 -85 c0 -14 -3 -25 -7 -25 -10 0 -10 34 -1 43 3 4 7 7 7 7 1 0
1 -11 1 -25z m135 -49 c0 -17 -9 -27 -32 -37 -18 -7 -46 -21 -62 -32 -28 -20
-28 -20 -97 3 -38 12 -69 24 -69 26 0 12 64 27 144 34 49 5 93 13 99 19 15 15
17 14 17 -13z m-275 -56 l30 -10 -32 5 c-87 12 -161 15 -188 6 -30 -9 -30 -9
10 -10 23 -1 68 -8 100 -17 33 -8 75 -18 94 -20 44 -6 59 -18 70 -58 5 -17 10
-23 10 -14 1 16 5 16 54 -3 28 -11 56 -24 60 -28 5 -5 5 -42 0 -83 -8 -70 -8
-76 12 -84 11 -5 29 -26 40 -46 18 -33 18 -41 7 -85 -7 -26 -33 -79 -56 -118
-24 -38 -54 -90 -66 -115 -44 -90 -82 -110 -133 -70 -27 21 -93 128 -84 136 2
3 20 -23 39 -58 28 -51 40 -64 62 -66 16 -2 36 4 47 14 26 23 54 118 69 232
l13 94 28 -4 c34 -5 29 7 -6 16 -14 4 -39 0 -57 -9 -21 -10 -25 -14 -10 -11
26 5 26 3 7 -33 -23 -45 -121 -128 -188 -159 -80 -38 -142 -52 -226 -53 -70
-1 -128 20 -206 74 -26 19 -28 19 -15 2 14 -17 13 -18 -15 -11 -47 11 -75 49
-75 102 0 138 104 190 258 127 79 -33 155 -36 197 -9 24 16 25 19 12 34 -8 9
-17 28 -20 42 -4 22 -4 21 -6 -6 -1 -21 5 -34 16 -38 21 -9 7 -23 -35 -35 -26
-8 -32 -7 -32 6 0 9 7 24 16 34 9 10 24 56 34 103 26 118 49 158 77 134 10 -8
12 -7 8 3 -2 8 -1 20 4 28 8 12 14 13 36 3 18 -8 32 -9 43 -3 15 9 15 10 -3 9
-11 0 -49 7 -83 17 -39 10 -89 15 -128 13 -35 -2 -64 -2 -64 -1 0 5 48 27 75
34 36 10 158 3 200 -11z m323 -64 c-42 -12 -84 -28 -92 -36 -10 -7 -16 -8 -16
-2 0 15 119 59 165 60 11 1 -15 -9 -57 -22z m31 -318 l30 -67 -55 -32 c-30
-17 -57 -29 -59 -27 -2 2 3 24 11 48 19 54 8 105 -31 142 -14 13 -25 34 -25
50 l0 27 49 -36 c39 -29 56 -52 80 -105z m6 -119 c-39 -22 -81 -50 -95 -62
l-25 -22 25 28 c28 32 126 95 150 96 8 1 -17 -17 -55 -40z m-815 -121 c0 -4
-5 -10 -11 -14 -12 -7 -29 12 -29 34 0 10 4 10 20 0 11 -7 20 -16 20 -20z
m198 -50 c-3 -7 -11 -13 -18 -13 -7 0 -15 6 -17 13 -3 7 4 12 17 12 13 0 20
-5 18 -12z m424 -50 c7 -22 -4 -198 -12 -198 -5 0 -23 15 -41 32 l-32 33 24 6
24 7 -23 1 c-32 1 -59 17 -73 42 -9 18 -8 20 9 15 30 -10 68 9 88 43 20 33 29
38 36 19z m-212 -69 c0 -3 -7 -6 -15 -6 -15 0 -20 18 -8 30 6 7 22 -10 23 -24z
m45 -51 c24 -41 78 -92 132 -124 40 -24 42 -28 64 -119 19 -79 29 -102 63
-141 74 -86 116 -124 168 -150 l52 -26 -25 -19 c-46 -35 -54 -31 -108 51 -54
83 -107 136 -146 146 -36 9 -83 -14 -114 -55 -26 -36 -26 -36 -87 -30 -33 3
-67 9 -75 14 -11 6 -12 5 -2 -5 7 -8 40 -16 73 -18 l60 -4 0 -54 c0 -46 5 -58
32 -90 26 -29 28 -36 13 -31 -11 3 -39 11 -61 16 -80 21 -165 91 -200 166 -42
88 -30 149 66 347 33 68 60 131 60 141 0 26 14 20 35 -15z m400 -47 c3 -5 -4
-13 -16 -16 -23 -8 -34 -1 -24 14 8 13 32 14 40 2z m-148 -37 c4 -12 -42 -26
-52 -16 -3 3 0 11 7 19 13 16 39 14 45 -3z m201 -59 c21 -44 28 -66 20 -71 -6
-4 -8 -3 -5 2 3 6 -9 38 -28 72 -18 34 -30 62 -26 62 4 0 21 -29 39 -65z
m-865 38 c-7 -2 -21 -2 -30 0 -10 3 -4 5 12 5 17 0 24 -2 18 -5z m-54 -7 c-11
-9 -90 -16 -84 -6 3 5 25 10 47 10 23 0 39 -2 37 -4z m763 -76 c30 -64 34 -80
22 -84 -8 -3 -12 -2 -9 4 9 14 -55 148 -74 153 -12 4 -11 5 4 5 15 1 28 -17
57 -78z m-742 -40 c0 -5 -2 -10 -4 -10 -3 0 -8 5 -11 10 -3 6 -1 10 4 10 6 0
11 -4 11 -10z m944 -5 c-8 -19 -36 -35 -64 -35 -28 0 -16 18 24 36 40 17 47
17 40 -1z m-151 -61 c-6 -17 -43 -34 -75 -34 -43 0 21 42 74 49 4 1 5 -6 1
-15z m-849 -187 c-5 -14 -34 -19 -34 -7 0 11 12 20 26 20 8 0 11 -6 8 -13z
m84 -3 c34 -24 26 -32 -20 -21 -52 13 -52 13 -43 26 9 16 37 13 63 -5z m969
-101 c3 -7 -14 -12 -46 -15 -47 -3 -49 -2 -33 15 18 20 73 20 79 0z m50 -9 c2
-6 -3 -11 -12 -11 -8 0 -15 7 -15 15 0 15 22 12 27 -4z"/>
<path d="M608 1633 c-32 -36 -48 -84 -47 -142 2 -44 2 -44 9 14 14 121 81 187
117 115 8 -16 13 -19 13 -9 0 19 -31 49 -51 49 -9 0 -27 -12 -41 -27z"/>
<path d="M506 1614 c-9 -8 -16 -23 -16 -32 0 -12 4 -9 13 8 8 14 19 24 26 22
7 -1 10 2 6 8 -8 13 -11 13 -29 -6z"/>
<path d="M542 1580 c0 -14 2 -19 5 -12 2 6 2 18 0 25 -3 6 -5 1 -5 -13z"/>
<path d="M700 1531 c0 -92 -8 -118 -44 -135 -17 -9 -26 -16 -19 -16 13 0 83
39 83 47 0 2 -4 2 -8 -1 -5 -3 -6 33 -4 80 3 46 2 84 -2 84 -3 0 -6 -26 -6
-59z"/>
<path d="M637 1549 c-28 -39 -16 -109 18 -109 35 0 46 74 17 110 l-19 23 -16
-24z m31 -23 c2 -10 -1 -23 -7 -29 -16 -16 -34 6 -26 33 8 24 28 22 33 -4z"/>
<path d="M482 1540 c0 -14 2 -19 5 -12 2 6 2 18 0 25 -3 6 -5 1 -5 -13z"/>
<path d="M504 1538 c-4 -7 -3 -8 4 -4 8 5 12 0 12 -13 0 -12 -4 -21 -10 -21
-5 0 -10 -9 -10 -20 0 -11 6 -20 14 -20 13 0 26 29 26 61 0 20 -27 33 -36 17z"/>
<path d="M571 1429 c-1 -21 24 -43 41 -36 8 3 6 6 -5 6 -10 1 -22 11 -27 24
-6 15 -9 17 -9 6z"/>
<path d="M80 1328 c-24 -40 -25 -57 -4 -65 22 -8 46 19 47 57 3 45 -18 49 -43
8z m15 -56 c-3 -3 -11 0 -18 7 -9 10 -8 11 6 5 10 -3 15 -9 12 -12z"/>
<path d="M207 1333 c-13 -12 -7 -68 9 -91 12 -18 19 -20 35 -12 23 13 24 41 4
80 -15 29 -34 38 -48 23z m40 -89 c-3 -3 -12 -4 -19 -1 -8 3 -5 6 6 6 11 1 17
-2 13 -5z"/>
<path d="M604 796 c11 -9 29 -16 40 -15 17 1 16 2 -6 9 -14 4 -32 11 -40 15
-7 3 -4 -1 6 -9z"/>
<path d="M683 783 c9 -2 25 -2 35 0 9 3 1 5 -18 5 -19 0 -27 -2 -17 -5z"/>
<path d="M580 612 c24 -15 100 -21 155 -13 45 8 41 8 -42 10 -50 0 -100 4
-110 7 -14 4 -15 4 -3 -4z"/>
</g>
</svg>
